<?xml version="1.0" encoding="UTF-8" standalone="no"?>
<!-- Created with Inkscape (http://www.inkscape.org/) -->

<svg
   xmlns:dc="http://purl.org/dc/elements/1.1/"
   xmlns:cc="http://creativecommons.org/ns#"
   xmlns:rdf="http://www.w3.org/1999/02/22-rdf-syntax-ns#"
   xmlns:svg="http://www.w3.org/2000/svg"
   xmlns="http://www.w3.org/2000/svg"
   xmlns:sodipodi="http://sodipodi.sourceforge.net/DTD/sodipodi-0.dtd"
   xmlns:inkscape="http://www.inkscape.org/namespaces/inkscape"
   width="210mm"
   height="297mm"
   id="svg3938"
   version="1.1"
   inkscape:version="0.48.2 r9819"
   sodipodi:docname="logo.svg"
   inkscape:export-filename="/home/fabi/Programmierung/C_CPP/syncfolders/logo.png"
   inkscape:export-xdpi="90"
   inkscape:export-ydpi="90">
  <defs
     id="defs3940">
    <marker
       inkscape:stockid="Arrow1Lend"
       orient="auto"
       refY="0.0"
       refX="0.0"
       id="Arrow1Lend"
       style="overflow:visible;">
      <path
         id="path3770"
         d="M 0.0,0.0 L 5.0,-5.0 L -12.5,0.0 L 5.0,5.0 L 0.0,0.0 z "
         style="fill-rule:evenodd;stroke:#000000;stroke-width:1.0pt;marker-start:none;"
         transform="scale(0.8) rotate(180) translate(12.5,0)" />
    </marker>
    <marker
       inkscape:stockid="Arrow2Lstart"
       orient="auto"
       refY="0.0"
       refX="0.0"
       id="Arrow2Lstart"
       style="overflow:visible">
      <path
         id="path3785"
         style="font-size:12.0;fill-rule:evenodd;stroke-width:0.62500000;stroke-linejoin:round"
         d="M 8.7185878,4.0337352 L -2.2072895,0.016013256 L 8.7185884,-4.0017078 C 6.9730900,-1.6296469 6.9831476,1.6157441 8.7185878,4.0337352 z "
         transform="scale(1.1) translate(1,0)" />
    </marker>
  </defs>
  <sodipodi:namedview
     id="base"
     pagecolor="#ffffff"
     bordercolor="#666666"
     borderopacity="1.0"
     inkscape:pageopacity="0.0"
     inkscape:pageshadow="2"
     inkscape:zoom="2.8"
     inkscape:cx="236.63205"
     inkscape:cy="621.00088"
     inkscape:document-units="px"
     inkscape:current-layer="layer1"
     showgrid="false"
     inkscape:window-width="1920"
     inkscape:window-height="1039"
     inkscape:window-x="0"
     inkscape:window-y="25"
     inkscape:window-maximized="1" />
  <metadata
     id="metadata3943">
    <rdf:RDF>
      <cc:Work
         rdf:about="">
        <dc:format>image/svg+xml</dc:format>
        <dc:type
           rdf:resource="http://purl.org/dc/dcmitype/StillImage" />
        <dc:title></dc:title>
      </cc:Work>
    </rdf:RDF>
  </metadata>
  <g
     inkscape:label="Ebene 1"
     inkscape:groupmode="layer"
     id="layer1">
    <path
       style="fill:#214478;fill-opacity:1;stroke:none"
       d="m 252.26177,488.59231 c -16.70716,-0.98349 -30.80704,-11.82327 -36.08129,-27.73877 -1.01865,-3.07388 -1.50403,-5.58875 -1.81688,-9.41378 -0.17485,-2.13774 -0.23051,-20.03278 -0.16631,-53.46821 0.10346,-53.87687 0.0356,-50.97389 1.30851,-55.9372 3.59676,-14.02383 14.81472,-25.18609 28.93498,-28.79131 5.01782,-1.28117 3.68792,-1.25147 56.05577,-1.25147 52.40324,0 50.97523,-0.032 56.1194,1.25834 11.00625,2.76083 20.56816,10.41737 25.78508,20.64697 2.30832,4.52627 3.66871,9.13577 4.20857,14.26018 0.3488,3.31077 0.33985,101.19684 -0.01,104.43581 -1.79877,16.67519 -13.67622,30.57058 -29.64717,34.68411 -5.41281,1.39415 -2.08622,1.31166 -54.68858,1.35606 -26.73747,0.0226 -49.23862,0.004 -50.00255,-0.0407 l 1e-5,0 z"
       id="path4578"
       inkscape:connector-curvature="0" />
    <rect
       style="fill:none;stroke:#162d50;stroke-width:1.74160778999999999;stroke-linecap:round;stroke-miterlimit:4;stroke-opacity:1;stroke-dasharray:none"
       id="rect4141"
       width="174.68678"
       height="178.7274"
       x="213.17699"
       y="310.94501"
       ry="41.21233" />
    <path
       style="fill:#000000;fill-opacity:1;stroke:none"
       d="m 227.03571,357.50504 117.5,-1.07143"
       id="path4651"
       inkscape:connector-curvature="0" />
    <path
       sodipodi:type="arc"
       style="fill:none;stroke:#ffffff;stroke-width:4.01241875;stroke-linecap:round;stroke-miterlimit:4;stroke-opacity:1;stroke-dasharray:none;marker-end:none"
       id="path4582"
       sodipodi:cx="279.91071"
       sodipodi:cy="394.05862"
       sodipodi:rx="43.482143"
       sodipodi:ry="25.625"
       d="m 323.38572,393.59471 a 43.482143,25.625 0 1 1 -86.95653,0.32644"
       transform="matrix(1.603696,0,0,2.4738676,-148.731,-591.0938)"
       sodipodi:start="6.2650803"
       sodipodi:end="9.430143"
       sodipodi:open="true" />
    <path
       sodipodi:type="arc"
       style="fill:none;stroke:#ffffff;stroke-width:7.9920001;stroke-linecap:round;stroke-miterlimit:4;stroke-opacity:1;stroke-dasharray:none"
       id="path4952"
       sodipodi:cx="305.80356"
       sodipodi:cy="387.71933"
       sodipodi:rx="70.267853"
       sodipodi:ry="61.42857"
       d="m 237.07846,374.91792 a 70.267853,61.42857 0 0 1 137.43706,-0.0538 l -68.71196,12.8552 z"
       sodipodi:start="3.3515264"
       sodipodi:end="6.0723562"
       transform="translate(-6,-2)" />
    <text
       xml:space="preserve"
       style="font-size:13.7695961px;font-style:normal;font-weight:normal;line-height:125%;letter-spacing:0px;word-spacing:0px;fill:#000000;fill-opacity:1;stroke:none;font-family:Sans"
       x="227.36147"
       y="484.85251"
       id="text4954"
       sodipodi:linespacing="125%"
       transform="scale(1.0134165,0.98676111)"><tspan
         sodipodi:role="line"
         id="tspan4956"
         x="227.36147"
         y="484.85251"
         style="font-size:27.5391922px;font-style:normal;font-variant:normal;font-weight:bold;font-stretch:normal;fill:#f2f2f2;font-family:RoostHeavy;-inkscape-font-specification:RoostHeavy Bold">syncfolders</tspan></text>
  </g>
</svg>
